<?xml version="1.0" encoding="UTF-8" standalone="no"?>
<svg
   version="1.1"
   x="0px"
   y="0px"
   viewBox="0 0 100 125"
   enable-background="new 0 0 100 100"
   xml:space="preserve"
   id="svg4"
   sodipodi:docname="noun-share-105425.svg"
   inkscape:version="1.3 (0e150ed6c4, 2023-07-21)"
   xmlns:inkscape="http://www.inkscape.org/namespaces/inkscape"
   xmlns:sodipodi="http://sodipodi.sourceforge.net/DTD/sodipodi-0.dtd"
   xmlns="http://www.w3.org/2000/svg"
   xmlns:svg="http://www.w3.org/2000/svg"><defs
     id="defs4" /><sodipodi:namedview
     id="namedview4"
     pagecolor="#ffffff"
     bordercolor="#000000"
     borderopacity="0.25"
     inkscape:showpageshadow="2"
     inkscape:pageopacity="0.0"
     inkscape:pagecheckerboard="0"
     inkscape:deskcolor="#d1d1d1"
     inkscape:zoom="6.2847651"
     inkscape:cx="22.832993"
     inkscape:cy="71.999509"
     inkscape:window-width="2560"
     inkscape:window-height="1346"
     inkscape:window-x="-11"
     inkscape:window-y="49"
     inkscape:window-maximized="1"
     inkscape:current-layer="svg4" /><g
     id="g3"
     transform="translate(0,8.2739767)"><path
       fill="#000000"
       d="m 67.771,49.829 v -0.086 c 0,-2.374 -1.922,-4.296 -4.296,-4.296 H 55.65 c -4.206,2.49 -7.349,5.629 -9.632,8.679 h 17.457 c 2.374,-10e-4 4.296,-1.924 4.296,-4.297"
       id="path1" /><path
       fill="#000000"
       d="M 66.055,55.658 H 44.942 c -2.187,3.259 -3.442,6.247 -4.045,7.961 -0.084,0.239 -0.178,0.456 -0.282,0.653 l 0.016,0.009 c -0.921,1.852 -2.804,3.003 -4.917,3.003 h -0.519 -0.4 L 34.406,67.185 C 32.085,66.614 30.39,64.641 30.093,62.163 L 30.066,61.95 v -0.197 c -0.09,-2.683 0.055,-9.952 3.459,-17.675 1.192,-3.325 2.103,-7.516 2.329,-10.285 0.233,-2.849 -1.387,-5.33 -3.467,-5.33 0,0 -3.24,-0.373 -5.125,3.869 -2.007,4.516 -7.269,10.977 -12.743,15.954 -1.644,0.993 -3.123,2.215 -4.406,3.626 -0.09,0.069 -0.18,0.138 -0.268,0.202 0,0 0.061,0 0.083,0.002 C 6.87,55.581 5,60.118 5,65.102 c 0,10.025 7.513,18.281 17.211,19.488 0.361,0.099 0.732,0.17 1.126,0.17 h 37.558 c 2.374,0 4.297,-1.925 4.297,-4.297 v -0.088 c 0,-2.371 -1.923,-4.296 -4.297,-4.296 H 40.963 c 0.334,-0.494 0.643,-1.006 0.933,-1.534 h 24.159 c 2.373,0 4.296,-1.92 4.296,-4.296 v -0.084 c 0,-2.372 -1.923,-4.296 -4.296,-4.296 H 44.273 c 0.012,-0.256 0.04,-0.51 0.04,-0.768 0,-0.258 -0.028,-0.509 -0.04,-0.767 h 21.781 c 2.373,0 4.296,-1.923 4.296,-4.296 v -0.084 c 0.001,-2.375 -1.922,-4.296 -4.295,-4.296"
       id="path2" /><path
       fill="#000000"
       d="M 94.515,29.684 73.685,15.431 c -0.305,-0.243 -0.795,-0.243 -1.1,-0.062 -0.365,0.185 -0.608,0.55 -0.608,0.976 v 7.872 c -12.65,0.627 -22.52,4.615 -29.205,11.802 -10.282,10.8 -9.414,25.091 -9.407,25.73 0,0.002 0.003,0.015 0.003,0.019 0.125,1.044 0.783,1.959 1.827,2.217 h 0.52 c 0.783,0 1.57,-0.391 1.959,-1.173 0.131,0 6.726,-23.99 34.303,-25.396 v 7.436 c 0,0.426 0.243,0.792 0.608,0.974 0.124,0.061 0.305,0.124 0.489,0.124 0.241,0 0.426,-0.062 0.61,-0.185 L 94.514,31.513 C 94.818,31.329 95,30.961 95,30.597 95,30.231 94.818,29.928 94.515,29.684"
       id="path3" /></g></svg>
