<?xml version="1.0" encoding="UTF-8" standalone="no"?>
<svg
   version="1.1"
   x="0px"
   y="0px"
   viewBox="-255 347 100 125"
   style="enable-background:new -255 347 100 100;"
   xml:space="preserve"
   id="svg4"
   sodipodi:docname="to-top-a.svg"
   inkscape:version="1.3 (0e150ed6c4, 2023-07-21)"
   xmlns:inkscape="http://www.inkscape.org/namespaces/inkscape"
   xmlns:sodipodi="http://sodipodi.sourceforge.net/DTD/sodipodi-0.dtd"
   xmlns="http://www.w3.org/2000/svg"
   xmlns:svg="http://www.w3.org/2000/svg"><defs
     id="defs4" /><sodipodi:namedview
     id="namedview4"
     pagecolor="#ffffff"
     bordercolor="#000000"
     borderopacity="0.25"
     inkscape:showpageshadow="2"
     inkscape:pageopacity="0.0"
     inkscape:pagecheckerboard="0"
     inkscape:deskcolor="#d1d1d1"
     inkscape:zoom="8.888"
     inkscape:cx="50.011251"
     inkscape:cy="56.649415"
     inkscape:window-width="2560"
     inkscape:window-height="1346"
     inkscape:window-x="-11"
     inkscape:window-y="49"
     inkscape:window-maximized="1"
     inkscape:current-layer="svg4" /><title
     id="title1">To Top Outline 1</title><desc
     id="desc1">Created with Sketch.</desc><g
     id="g3"
     transform="translate(0,11.588659)"><path
       d="m -172,352 h -66 c -6.6,0 -12,5.4 -12,12 v 66 c 0,6.6 5.4,12 12,12 h 66 c 6.6,0 12,-5.4 12,-12 v -66 c 0,-6.6 -5.4,-12 -12,-12 z m 8,78 c 0,4.4 -3.6,8 -8,8 h -66 c -4.4,0 -8,-3.6 -8,-8 v -66 c 0,-4.4 3.6,-8 8,-8 h 66 c 4.4,0 8,3.6 8,8 z"
       id="path1" /><path
       d="m -204.6,381.6 c -0.8,-0.8 -2,-0.8 -2.8,0 l -13,13 c -0.8,0.8 -0.8,2 0,2.8 0.8,0.8 2,0.8 2.8,0 l 9.6,-9.6 v 34.7 c 0,1.1 0.9,2 2,2 1.1,0 2,-0.9 2,-2 v -34.7 l 9.6,9.6 c 0.8,0.8 2,0.8 2.8,0 0.8,-0.8 0.8,-2 0,-2.8 z"
       id="path2" /><path
       d="m -191,371 h -30 c -1.1,0 -2,0.9 -2,2 0,1.1 0.9,2 2,2 h 30 c 1.1,0 2,-0.9 2,-2 0,-1.1 -0.9,-2 -2,-2 z"
       id="path3" /></g></svg>
